<svg width="128" height="128" version="1.1" id="Layer_1" xmlns:x="ns_extend;" xmlns:i="ns_ai;" xmlns:graph="ns_graphs;" xmlns="http://www.w3.org/2000/svg" xmlns:xlink="http://www.w3.org/1999/xlink" x="0px" y="0px" viewBox="0 0 54 54" style="enable-background:new 0 0 54 54;" xml:space="preserve">
 <style type="text/css">
  .st0{fill-rule:evenodd;clip-rule:evenodd;fill:#0B63CE;}
 </style>
 <metadata>
  <sfw xmlns="ns_sfw;">
   <slices>
   </slices>
   <sliceSourceBounds bottomLeftOrigin="true" height="54" width="54" x="69.1" y="-221.4">
   </sliceSourceBounds>
  </sfw>
 </metadata>
 <g>
  <path class="st0" d="M0,4c0-2.2,1.8-4,4-4h46c2.2,0,4,1.8,4,4v46c0,2.2-1.8,4-4,4H4c-2.2,0-4-1.8-4-4V4z M8,9c0-0.6,0.4-1,1-1h6
		c0.6,0,1,0.4,1,1v6c0,0.6-0.4,1-1,1H9c-0.6,0-1-0.4-1-1V9z M19,8c-0.6,0-1,0.4-1,1v6c0,0.6,0.4,1,1,1h6c0.6,0,1-0.4,1-1V9
		c0-0.6-0.4-1-1-1H19z M28,9c0-0.6,0.4-1,1-1h6c0.6,0,1,0.4,1,1v6c0,0.6-0.4,1-1,1h-6c-0.6,0-1-0.4-1-1V9z M9,18c-0.6,0-1,0.4-1,1v6
		c0,0.6,0.4,1,1,1h6c0.6,0,1-0.4,1-1v-6c0-0.6-0.4-1-1-1H9z M18,19c0-0.6,0.4-1,1-1h6c0.6,0,1,0.4,1,1v6c0,0.6-0.4,1-1,1h-6
		c-0.6,0-1-0.4-1-1V19z M39,18c-0.6,0-1,0.4-1,1v6c0,0.6,0.4,1,1,1h6c0.6,0,1-0.4,1-1v-6c0-0.6-0.4-1-1-1H39z M8,29c0-0.6,0.4-1,1-1
		h6c0.6,0,1,0.4,1,1v6c0,0.6-0.4,1-1,1H9c-0.6,0-1-0.4-1-1V29z M29,28c-0.6,0-1,0.4-1,1v6c0,0.6,0.4,1,1,1h6c0.6,0,1-0.4,1-1v-6
		c0-0.6-0.4-1-1-1H29z M38,29c0-0.6,0.4-1,1-1h6c0.6,0,1,0.4,1,1v6c0,0.6-0.4,1-1,1h-6c-0.6,0-1-0.4-1-1V29z M19,38
		c-0.6,0-1,0.4-1,1v6c0,0.6,0.4,1,1,1h6c0.6,0,1-0.4,1-1v-6c0-0.6-0.4-1-1-1H19z M28,39c0-0.6,0.4-1,1-1h6c0.6,0,1,0.4,1,1v6
		c0,0.6-0.4,1-1,1h-6c-0.6,0-1-0.4-1-1V39z M39,38c-0.6,0-1,0.4-1,1v6c0,0.6,0.4,1,1,1h6c0.6,0,1-0.4,1-1v-6c0-0.6-0.4-1-1-1H39z">
  </path>
 </g>
</svg>